<svg width="512" height="512" viewBox="0 0 512 512" fill="none" xmlns="http://www.w3.org/2000/svg">
  <rect width="512" height="512" rx="132" fill="#F7F4EC"/>
  <rect x="56" y="56" width="400" height="400" rx="104" fill="#101A43"/>
  <path d="M138 146H213.294C246.453 146 273.336 172.883 273.336 206.042C273.336 239.201 246.453 266.084 213.294 266.084H138V146Z" fill="white"/>
  <path d="M138 287.916H229.899C264.763 287.916 293.033 316.186 293.033 351.05C293.033 385.914 264.763 414.184 229.899 414.184H138V287.916Z" fill="#D7E2FF"/>
  <path d="M346.219 150L248.609 382H305.562L323.014 337.999H398.13L415.582 382H474L376.341 150H346.219ZM337.707 301.21L360.572 243.584L383.437 301.21H337.707Z" fill="white"/>
</svg>
