<svg width="960" height="680" viewBox="0 0 960 680" fill="none" xmlns="http://www.w3.org/2000/svg">
  <rect width="960" height="680" rx="40" fill="#EFF4FF"/>
  <rect x="34" y="34" width="892" height="612" rx="32" fill="white"/>
  <rect x="76" y="72" width="168" height="24" rx="12" fill="#D8E2FF"/>
  <rect x="76" y="112" width="220" height="18" rx="9" fill="#E7ECFA"/>
  <rect x="76" y="166" width="808" height="430" rx="28" fill="#F8FAFF"/>
  <circle cx="480" cy="372" r="90" fill="#101A43"/>
  <circle cx="480" cy="372" r="58" fill="#1D38A0"/>
  <circle cx="480" cy="372" r="24" fill="white"/>
  <circle cx="236" cy="256" r="54" fill="#D7E2FF"/>
  <circle cx="724" cy="250" r="54" fill="#D7E2FF"/>
  <circle cx="226" cy="500" r="54" fill="#D7E2FF"/>
  <circle cx="734" cy="500" r="54" fill="#D7E2FF"/>
  <path d="M286 274L412 340" stroke="#8CA6F3" stroke-width="12" stroke-linecap="round"/>
  <path d="M674 274L548 340" stroke="#8CA6F3" stroke-width="12" stroke-linecap="round"/>
  <path d="M286 480L412 404" stroke="#8CA6F3" stroke-width="12" stroke-linecap="round"/>
  <path d="M674 480L548 404" stroke="#8CA6F3" stroke-width="12" stroke-linecap="round"/>
  <rect x="168" y="232" width="136" height="62" rx="22" fill="white"/>
  <rect x="656" y="226" width="136" height="62" rx="22" fill="white"/>
  <rect x="158" y="472" width="136" height="62" rx="22" fill="white"/>
  <rect x="666" y="472" width="136" height="62" rx="22" fill="white"/>
  <text x="196" y="268" fill="#101A43" font-family="'PingFang SC', 'Noto Sans SC', Arial, sans-serif" font-size="20" font-weight="700">导师匹配</text>
  <text x="685" y="262" fill="#101A43" font-family="'PingFang SC', 'Noto Sans SC', Arial, sans-serif" font-size="20" font-weight="700">奖学金</text>
  <text x="183" y="508" fill="#101A43" font-family="'PingFang SC', 'Noto Sans SC', Arial, sans-serif" font-size="20" font-weight="700">实验技能</text>
  <text x="694" y="508" fill="#101A43" font-family="'PingFang SC', 'Noto Sans SC', Arial, sans-serif" font-size="20" font-weight="700">套磁窗口</text>
  <text x="450" y="355" fill="white" font-family="'PingFang SC', 'Noto Sans SC', Arial, sans-serif" font-size="18" font-weight="700">研究</text>
  <text x="440" y="386" fill="#D7E2FF" font-family="'PingFang SC', 'Noto Sans SC', Arial, sans-serif" font-size="20" font-weight="700">中枢</text>
</svg>
