<svg width="960" height="680" viewBox="0 0 960 680" fill="none" xmlns="http://www.w3.org/2000/svg">
  <rect width="960" height="680" rx="40" fill="#101A43"/>
  <rect x="36" y="36" width="888" height="608" rx="32" fill="#142155"/>
  <rect x="78" y="76" width="188" height="24" rx="12" fill="white" fill-opacity="0.14"/>
  <rect x="78" y="116" width="124" height="18" rx="9" fill="white" fill-opacity="0.1"/>
  <rect x="78" y="166" width="340" height="430" rx="28" fill="white" fill-opacity="0.06"/>
  <rect x="452" y="166" width="430" height="250" rx="28" fill="white" fill-opacity="0.06"/>
  <rect x="452" y="446" width="430" height="150" rx="28" fill="url(#paint0_linear_801_3)"/>
  <circle cx="230" cy="378" r="134" stroke="white" stroke-opacity="0.16" stroke-width="2"/>
  <circle cx="230" cy="378" r="98" stroke="white" stroke-opacity="0.16" stroke-width="2"/>
  <circle cx="230" cy="378" r="62" stroke="white" stroke-opacity="0.16" stroke-width="2"/>
  <path d="M230 230V526" stroke="white" stroke-opacity="0.16" stroke-width="2"/>
  <path d="M82 378H378" stroke="white" stroke-opacity="0.16" stroke-width="2"/>
  <path d="M124 282L336 474" stroke="white" stroke-opacity="0.16" stroke-width="2"/>
  <path d="M336 282L124 474" stroke="white" stroke-opacity="0.16" stroke-width="2"/>
  <polygon points="230,294 264,350 328,360 282,414 292,482 230,450 168,482 178,414 132,360 196,350" fill="#2AAE74"/>
  <rect x="494" y="206" width="160" height="18" rx="9" fill="white" fill-opacity="0.16"/>
  <rect x="494" y="246" width="104" height="14" rx="7" fill="white" fill-opacity="0.12"/>
  <rect x="494" y="286" width="346" height="88" rx="24" fill="#F8FAFF"/>
  <rect x="522" y="314" width="96" height="14" rx="7" fill="#C7D5F6"/>
  <rect x="522" y="346" width="198" height="16" rx="8" fill="#DEE7FF"/>
  <rect x="744" y="314" width="68" height="40" rx="18" fill="#213FA5"/>
  <rect x="494" y="470" width="168" height="18" rx="9" fill="white" fill-opacity="0.8"/>
  <rect x="494" y="514" width="250" height="16" rx="8" fill="white" fill-opacity="0.72"/>
  <rect x="494" y="548" width="212" height="16" rx="8" fill="white" fill-opacity="0.52"/>
  <rect x="760" y="480" width="88" height="88" rx="28" fill="white" fill-opacity="0.16"/>
  <path d="M802 504L820 524L786 558L770 542L802 504Z" fill="white"/>
  <defs>
    <linearGradient id="paint0_linear_801_3" x1="452" y1="446" x2="882" y2="596" gradientUnits="userSpaceOnUse">
      <stop stop-color="#213FA5"/>
      <stop offset="1" stop-color="#2AAE74"/>
    </linearGradient>
  </defs>
</svg>
